<svg xmlns="http://www.w3.org/2000/svg" xmlns:xlink="http://www.w3.org/1999/xlink" width="632.834" height="683.171" viewBox="0 0 632.834 683.171">
  <defs>
    <radialGradient id="radial-gradient" cx="0.5" cy="0.5" r="0.478" gradientTransform="translate(-0.049) scale(1.098 1)" gradientUnits="objectBoundingBox">
      <stop offset="0" stop-color="#ffc8af"/>
      <stop offset="1" stop-color="#ffbb9c"/>
    </radialGradient>
    <radialGradient id="radial-gradient-2" cx="0.506" cy="0.49" r="0.451" gradientTransform="matrix(1.232, -0.21, 0.265, 0.978, -0.31, 0.174)" xlink:href="#radial-gradient"/>
    <radialGradient id="radial-gradient-3" cx="0.5" cy="0.5" r="0.531" gradientTransform="translate(0.054) scale(0.891 1)" xlink:href="#radial-gradient"/>
    <radialGradient id="radial-gradient-4" cx="0.5" cy="0.5" r="0.511" gradientTransform="translate(0.021) scale(0.958 1)" xlink:href="#radial-gradient"/>
    <radialGradient id="radial-gradient-5" cx="1.47" cy="-0.006" r="4.15" gradientTransform="translate(0.306) scale(0.387 1)" xlink:href="#radial-gradient"/>
    <radialGradient id="radial-gradient-6" cx="0.183" cy="0.438" r="1.813" gradientTransform="translate(0.33) scale(0.34 1)" xlink:href="#radial-gradient"/>
    <linearGradient id="linear-gradient" x1="4.513" y1="-3.241" x2="3.024" y2="-2.458" gradientUnits="objectBoundingBox">
      <stop offset="0" stop-color="#606bf1"/>
      <stop offset="1" stop-color="#58479f"/>
    </linearGradient>
    <linearGradient id="linear-gradient-2" x1="8.927" y1="-5.136" x2="7.575" y2="-4.342" xlink:href="#linear-gradient"/>
    <linearGradient id="linear-gradient-3" x1="6.918" y1="-3.36" x2="5.26" y2="-2.587" xlink:href="#linear-gradient"/>
  </defs>
  <g id="Group_80" data-name="Group 80" transform="translate(-166.793 -79.775)">
    <g id="Group_74" data-name="Group 74" transform="translate(166.793 79.775)">
      <g id="Group_39" data-name="Group 39" transform="translate(63.815 39.757)">
        <g id="Group_2" data-name="Group 2">
          <rect id="Rectangle_4" data-name="Rectangle 4" width="200.505" height="187.146" fill="#112b46"/>
        </g>
        <g id="Group_3" data-name="Group 3" style="mix-blend-mode: screen;isolation: isolate">
          <rect id="Rectangle_5" data-name="Rectangle 5" width="200.505" height="19.793" fill="#1d262d"/>
        </g>
        <g id="Group_7" data-name="Group 7" transform="translate(149.908 6.493)">
          <g id="Group_4" data-name="Group 4">
            <path id="Path_1" data-name="Path 1" d="M200.425,105.9a3.629,3.629,0,1,1-3.63-3.628A3.629,3.629,0,0,1,200.425,105.9Z" transform="translate(-193.168 -102.277)" fill="#606bf1"/>
          </g>
          <g id="Group_5" data-name="Group 5" transform="translate(15.15)">
            <path id="Path_2" data-name="Path 2" d="M207.794,105.9a3.628,3.628,0,1,1-3.628-3.628A3.627,3.627,0,0,1,207.794,105.9Z" transform="translate(-200.539 -102.277)" fill="#fbd15b"/>
          </g>
          <g id="Group_6" data-name="Group 6" transform="translate(29.216 0.382)">
            <path id="Path_3" data-name="Path 3" d="M214.638,106.091a3.628,3.628,0,1,1-3.628-3.628A3.627,3.627,0,0,1,214.638,106.091Z" transform="translate(-207.383 -102.463)" fill="#ff8578"/>
          </g>
        </g>
        <g id="Group_31" data-name="Group 31" transform="translate(35.652 38.191)">
          <g id="Group_17" data-name="Group 17">
            <g id="Group_8" data-name="Group 8">
              <rect id="Rectangle_6" data-name="Rectangle 6" width="28.398" height="2.387" fill="#ff8578"/>
            </g>
            <g id="Group_9" data-name="Group 9" transform="translate(33.332)">
              <rect id="Rectangle_7" data-name="Rectangle 7" width="28.398" height="2.387" fill="#fbd15b"/>
            </g>
            <g id="Group_10" data-name="Group 10" transform="translate(8.784 12.858)">
              <rect id="Rectangle_8" data-name="Rectangle 8" width="44.037" height="2.387" fill="#606bf1"/>
            </g>
            <g id="Group_11" data-name="Group 11" transform="translate(60.103 12.858)">
              <rect id="Rectangle_9" data-name="Rectangle 9" width="22.384" height="2.387" fill="#ff8578"/>
            </g>
            <g id="Group_12" data-name="Group 12" transform="translate(24.06 25.715)">
              <rect id="Rectangle_10" data-name="Rectangle 10" width="19.341" height="2.387" fill="#fbd15b"/>
            </g>
            <g id="Group_13" data-name="Group 13" transform="translate(54.579 25.715)">
              <rect id="Rectangle_11" data-name="Rectangle 11" width="64.162" height="2.387" fill="#fbd15b"/>
            </g>
            <g id="Group_14" data-name="Group 14" transform="translate(39.082 38.573)">
              <rect id="Rectangle_12" data-name="Rectangle 12" width="73.328" height="2.387" fill="#606bf1"/>
            </g>
            <g id="Group_15" data-name="Group 15" transform="translate(20.748 51.431)">
              <rect id="Rectangle_13" data-name="Rectangle 13" width="22.568" height="2.387" fill="#ff8578"/>
            </g>
            <g id="Group_16" data-name="Group 16" transform="translate(52.972 51.431)">
              <rect id="Rectangle_14" data-name="Rectangle 14" width="22.568" height="2.387" fill="#606bf1"/>
            </g>
          </g>
          <g id="Group_30" data-name="Group 30" transform="translate(0 66.707)">
            <g id="Group_18" data-name="Group 18" transform="translate(0 51.43)">
              <rect id="Rectangle_15" data-name="Rectangle 15" width="32.831" height="2.387" fill="#ff8578"/>
            </g>
            <g id="Group_19" data-name="Group 19" transform="translate(44.329 51.43)">
              <rect id="Rectangle_16" data-name="Rectangle 16" width="32.831" height="2.387" fill="#fbd15b"/>
            </g>
            <g id="Group_20" data-name="Group 20" transform="translate(87.464 51.43)">
              <rect id="Rectangle_17" data-name="Rectangle 17" width="32.831" height="2.387" fill="#ff8578"/>
            </g>
            <g id="Group_21" data-name="Group 21" transform="translate(8.784 38.573)">
              <rect id="Rectangle_18" data-name="Rectangle 18" width="64.162" height="2.387" fill="#606bf1"/>
            </g>
            <g id="Group_22" data-name="Group 22" transform="translate(82.949 38.573)">
              <rect id="Rectangle_19" data-name="Rectangle 19" width="64.162" height="2.387" fill="#ff8578"/>
            </g>
            <g id="Group_23" data-name="Group 23" transform="translate(24.06 25.715)">
              <rect id="Rectangle_20" data-name="Rectangle 20" width="63.669" height="2.387" fill="#ff8578"/>
            </g>
            <g id="Group_24" data-name="Group 24" transform="translate(93.281 25.715)">
              <rect id="Rectangle_21" data-name="Rectangle 21" width="17.721" height="2.387" fill="#fbd15b"/>
            </g>
            <g id="Group_25" data-name="Group 25" transform="translate(19.901 12.858)">
              <rect id="Rectangle_22" data-name="Rectangle 22" width="23.969" height="2.387" fill="#fbd15b"/>
            </g>
            <g id="Group_26" data-name="Group 26" transform="translate(56.6 12.858)">
              <rect id="Rectangle_23" data-name="Rectangle 23" width="23.969" height="2.387" fill="#606bf1"/>
            </g>
            <g id="Group_27" data-name="Group 27" transform="translate(95.985 12.858)">
              <rect id="Rectangle_24" data-name="Rectangle 24" width="23.969" height="2.387" fill="#ff8578"/>
            </g>
            <g id="Group_28" data-name="Group 28" transform="translate(47.686)">
              <rect id="Rectangle_25" data-name="Rectangle 25" width="33.609" height="2.387" fill="#fbd15b"/>
            </g>
            <g id="Group_29" data-name="Group 29" transform="translate(1.397)">
              <rect id="Rectangle_26" data-name="Rectangle 26" width="33.609" height="2.387" fill="#606bf1"/>
            </g>
          </g>
        </g>
        <g id="Group_38" data-name="Group 38" transform="translate(17.066 35.899)">
          <g id="Group_33" data-name="Group 33" transform="translate(0)">
            <g id="Group_32" data-name="Group 32">
              <rect id="Rectangle_27" data-name="Rectangle 27" width="3.055" height="3.055" fill="#f9fbfc"/>
            </g>
          </g>
          <g id="Group_35" data-name="Group 35" transform="translate(0 12.402)">
            <g id="Group_34" data-name="Group 34">
              <path id="Path_4" data-name="Path 4" d="M131.591,222.316h-3.056v-6.23h3.056Zm0-15.577h-3.056v-6.23h3.056Zm0-15.579h-3.056v-6.23h3.056Zm0-15.577h-3.056v-6.232h3.056Zm0-15.577h-3.056v-6.232h3.056Zm0-15.577h-3.056V138.2h3.056Zm0-15.579h-3.056v-6.23h3.056Z" transform="translate(-128.535 -122.619)" fill="#f9fbfc"/>
            </g>
          </g>
          <g id="Group_37" data-name="Group 37" transform="translate(0 121.447)">
            <g id="Group_36" data-name="Group 36">
              <rect id="Rectangle_28" data-name="Rectangle 28" width="3.055" height="3.055" fill="#f9fbfc"/>
            </g>
          </g>
        </g>
      </g>
      <g id="Group_42" data-name="Group 42" transform="translate(307.461)">
        <g id="Group_40" data-name="Group 40">
          <rect id="Rectangle_29" data-name="Rectangle 29" width="165.104" height="101.769" fill="#ff8578"/>
        </g>
        <g id="Group_41" data-name="Group 41" transform="translate(37.994 20.007)">
          <path id="Path_5" data-name="Path 5" d="M283.391,102.674l-19.645,8.384,19.645,8.26-2.571,5.936-23.558-10.523v-7.282L280.82,96.862Z" transform="translate(-257.262 -81.749)" fill="#f9fbfc"/>
          <path id="Path_6" data-name="Path 6" d="M294.866,91.038,280.611,145.8l-6.793-1.591,14.319-54.7Z" transform="translate(-239.79 -89.509)" fill="#f9fbfc"/>
          <path id="Path_7" data-name="Path 7" d="M314.061,107.449v7.282L290.5,125.254l-2.567-5.936,19.581-8.26-19.581-8.384,2.567-5.812Z" transform="translate(-224.893 -81.749)" fill="#f9fbfc"/>
        </g>
      </g>
      <g id="Group_45" data-name="Group 45" transform="translate(466.895 197.158)">
        <g id="Group_43" data-name="Group 43">
          <rect id="Rectangle_30" data-name="Rectangle 30" width="94.038" height="66.995" fill="#606bf1"/>
        </g>
        <g id="Group_44" data-name="Group 44" transform="translate(26.324 10.046)">
          <path id="Path_8" data-name="Path 8" d="M342.167,185c-3.025,0-4.033.816-4.033,3.073v10.083c0,3.938-1.634,5.138-4.37,5.907,2.736.719,4.37,1.92,4.37,5.808V219.96c0,2.257,1.056,3.073,4.033,3.073v4.419c-7.633,0-9.8-2.45-9.8-7.539v-9.555c0-2.738-.719-3.794-3.217-3.794v-5.042c2.5,0,3.217-1.1,3.217-3.841v-9.553c0-5.138,2.162-7.539,9.8-7.539Z" transform="translate(-329.155 -180.588)" fill="#f1f2f2"/>
          <path id="Path_9" data-name="Path 9" d="M352.758,188.127v9.553c0,2.738.719,3.841,3.266,3.841v5.042c-2.546,0-3.266,1.056-3.266,3.794v9.555c0,5.089-2.16,7.539-9.8,7.539v-4.419c2.978,0,4.035-.816,4.035-3.073V209.876c0-3.889,1.632-5.089,4.37-5.808-2.738-.769-4.37-1.969-4.37-5.907V188.078c0-2.257-1.009-3.073-4.035-3.073v-4.417C350.6,180.588,352.758,182.989,352.758,188.127Z" transform="translate(-314.584 -180.588)" fill="#f1f2f2"/>
        </g>
      </g>
      <g id="Group_49" data-name="Group 49" transform="translate(0 14.596)">
        <g id="Group_46" data-name="Group 46">
          <rect id="Rectangle_31" data-name="Rectangle 31" width="105.498" height="70.563" fill="#fbd15b"/>
        </g>
        <g id="Group_48" data-name="Group 48" transform="translate(31.188 13.712)">
          <g id="Group_47" data-name="Group 47">
            <path id="Path_10" data-name="Path 10" d="M108.085,100.09a17.316,17.316,0,0,0,23.17,25.171l11.072,11.074a1.2,1.2,0,0,0,1.694,0l3.11-3.112a1.193,1.193,0,0,0,0-1.692l-11.072-11.074a17.316,17.316,0,0,0-27.973-20.368Zm22.224,19.423a12.244,12.244,0,1,1,0-17.314A12.257,12.257,0,0,1,130.309,119.513Z" transform="translate(-104.357 -93.548)" fill="#f9fbfc"/>
          </g>
        </g>
      </g>
      <g id="Group_73" data-name="Group 73" transform="translate(0.31 124.293)">
        <g id="Group_53" data-name="Group 53" transform="translate(316.045)">
          <path id="Path_11" data-name="Path 11" d="M315.8,207.76c-.23,2.331-3.416,26.664-28.439,26.664-26.269,0-21.869-26.008-21.869-26.008l-.033-.162a26.186,26.186,0,0,1,8.242-.395V195.543l29.817-16.681H304.6V207.6A54.191,54.191,0,0,1,315.8,207.76Z" transform="translate(-219.769 -99.499)" fill="url(#radial-gradient)"/>
          <g id="Group_52" data-name="Group 52">
            <g id="Group_51" data-name="Group 51" transform="translate(18.074 13.577)">
              <g id="Group_50" data-name="Group 50">
                <path id="Path_12" data-name="Path 12" d="M315.371,157.671a34.072,34.072,0,0,1,8.961,16.615c2.865,12.632.168,26-3.5,38.171a19.183,19.183,0,0,1-2.625,5.936,21.115,21.115,0,0,1-3.268,3.3q-7.957,6.927-15.9,13.871c-3.587,3.141-25.669,5.755-29.882,2.742-16.241-11.61-19.365-45.254-16.116-62.453C258.439,147.323,295.112,137.122,315.371,157.671Z" transform="translate(-251.897 -146.854)" fill="url(#radial-gradient-2)"/>
              </g>
            </g>
            <path id="Path_13" data-name="Path 13" d="M278.384,172.2c.216-2.746,3.04-5.753,5.874-3.971,2.935,1.846,2.244,6.723,1.028,9.407-.954,2.1-4.144,4.409-6.3,2.452-1.811-1.642,1-3.576,1.1-5.075.084-1.348-2.612-2.314-1.509-3.757" transform="translate(-205.957 -111.289)" fill="#f7b094"/>
            <path id="Path_14" data-name="Path 14" d="M278.665,183.414c2.96.888,7.973-1.369,9.243-5.492a31.579,31.579,0,0,0,1.132-8.83,21.161,21.161,0,0,1,.723,9.736c-.767,6.006-2.871,11.726-7.584,11.8S278.665,183.414,278.665,183.414Z" transform="translate(-205.718 -109.808)" fill="#f7b094"/>
            <path id="Path_15" data-name="Path 15" d="M312.418,209.582a1.04,1.04,0,0,1-.331.1c-1.833.257-2.565-1.961-2.836-3.348a61.775,61.775,0,0,1-.649-9.8,7.379,7.379,0,0,0-.3-2.618c-1.032-2.36-3.774-3.891-4.612-6.326-.972-2.832,1.776-5.658.684-8.758-1.671-4.75-7.769-5.843-12.18-5.79-6.62.078-13.072,1.305-19.6,2.318-6.9,1.069-15.709,2.086-21.786-2.275-7.323-5.255-10.381-18.954-4.916-26.454,2.98-4.088,8.628-6.265,13.579-6.378,5.245-.119,9.679,3.007,14.492,4.581,3.833,1.254,7.541-2.413,11.123-3.13,4.5-.9,6.417,4.016,10.4,4.152,3.87.132,7.666-2.892,11.432-3.578,7.5-1.371,7.06,6.166,12.093,8.739,3.13,1.6,7.171.631,10.336,2.257,2.4,1.235,2.742,3.406,3.266,5.866.454,2.125.479,4.579,1.178,6.6.631,1.817,2.156,2.964,3.346,4.384a16.092,16.092,0,0,1,2.787,5.3,33.052,33.052,0,0,1,1.387,13.477c-.67,7.576-3.108,15.035-5.638,22.169-1.642,4.633-2.253,9.452-4.779,13.834-.678,1.178-3.691,4.618-4.812,2.055a3.757,3.757,0,0,1-.162-1.772c.333-4.772,4.779-35.53-6.873-31.835a8.257,8.257,0,0,0-5,5.132A19.988,19.988,0,0,0,313.025,207c.021.419.031.841.014,1.26A1.436,1.436,0,0,1,312.418,209.582Z" transform="translate(-243.103 -140.248)" fill="#3d3d7a"/>
          </g>
        </g>
        <path id="Path_16" data-name="Path 16" d="M269.751,198.066c13.249-2.129,21.99-12.6,21.99-12.6s-3.574,17.637-22.785,18.57Z" transform="translate(100.224 -92.524)" fill="#f7b094"/>
        <g id="Group_55" data-name="Group 55" transform="translate(302.796 345.955)">
          <path id="Rectangle_32" data-name="Rectangle 32" d="M1.626,0H17.338a1.626,1.626,0,0,1,1.626,1.626V185.289a0,0,0,0,1,0,0H0a0,0,0,0,1,0,0V1.626A1.626,1.626,0,0,1,1.626,0Z" transform="translate(107.89 185.289) rotate(180)" fill="#0a2033"/>
          <path id="Rectangle_33" data-name="Rectangle 33" d="M6.314,0H97.977a6.314,6.314,0,0,1,6.314,6.314v9.511a0,0,0,0,1,0,0H0a0,0,0,0,1,0,0V6.314A6.314,6.314,0,0,1,6.314,0Z" transform="translate(150.554 18.425) rotate(180)" fill="#30475e"/>
          <g id="Group_54" data-name="Group 54" transform="translate(0 149.585)">
            <path id="Rectangle_34" data-name="Rectangle 34" d="M1.626,0H17.338a1.626,1.626,0,0,1,1.626,1.626V45.5a0,0,0,0,1,0,0H0a0,0,0,0,1,0,0V1.626A1.626,1.626,0,0,1,1.626,0Z" transform="translate(107.89 59.636) rotate(180)" fill="#0a2033"/>
            <path id="Path_17" data-name="Path 17" d="M236.657,410.664a11.1,11.1,0,1,0,11.1-11.1A11.1,11.1,0,0,0,236.657,410.664Z" transform="translate(-236.657 -362.127)" fill="#0a2033"/>
            <path id="Path_18" data-name="Path 18" d="M321.617,410.664a11.1,11.1,0,1,0,11.1-11.1A11.1,11.1,0,0,0,321.617,410.664Z" transform="translate(-146.997 -362.127)" fill="#0a2033"/>
            <rect id="Rectangle_35" data-name="Rectangle 35" width="38.151" height="33.338" transform="translate(117.484 33.338) rotate(180)" fill="#30475e"/>
            <path id="Rectangle_36" data-name="Rectangle 36" d="M0,0H196.817a0,0,0,0,1,0,0V9.937a5.751,5.751,0,0,1-5.751,5.751H5.751A5.751,5.751,0,0,1,0,9.937V0A0,0,0,0,1,0,0Z" transform="translate(196.817 41.182) rotate(180)" fill="#fbd15b"/>
          </g>
          <rect id="Rectangle_37" data-name="Rectangle 37" width="6.578" height="124.446" transform="translate(91.831 22.165)" fill="#30475e"/>
        </g>
        <path id="Path_19" data-name="Path 19" d="M389.669,244.405a7.735,7.735,0,0,0-7.987,8.168c1.3,22.588-3.486,77.691-24.524,96.493-25.724,22.987-98.635,19.854-98.635,19.854s-12.04,14.778,12.042,18.062,91.947,1.093,108.365-14.231c15.894-14.833,25.33-53.7,18.218-121.342a7.786,7.786,0,0,0-7.479-7Z" transform="translate(86.039 -30.334)" fill="#fbd15b"/>
        <g id="Group_57" data-name="Group 57" transform="translate(187.596 128.884)">
          <g id="Group_56" data-name="Group 56">
            <path id="Path_20" data-name="Path 20" d="M267.982,379.9l8.669,19.769-26.566,11.658-8.7-19.834Z" transform="translate(-116.47 -16.221)" fill="url(#radial-gradient-3)"/>
            <path id="Path_21" data-name="Path 21" d="M425.461,273c-1.642,3.284-119.679.066-130.827,1.085,0,0-72.244,34.48-82.62,66.759-1.052,3.252-1.346,7.553-1.019,12.675,2.89,45.449,54.643,154.274,54.643,154.274l7.948-3.48,26.6-11.592,3.778-1.642S262.912,368.756,271.123,362.19s101.239-22.987,133.52-31.722C436.955,321.7,425.461,273,425.461,273Z" transform="translate(-148.673 -129.038)" fill="#56548c"/>
            <path id="Path_22" data-name="Path 22" d="M219.936,382.411l2.075,29.7h-29l-2.075-29.765Z" transform="translate(-169.704 -13.643)" fill="url(#radial-gradient-4)"/>
            <path id="Path_23" data-name="Path 23" d="M325.979,273.031l-1.052.46s-120.943,16.977-140.645,50.9C171.475,346.457,196.264,507.7,196.264,507.7l42.788.1s-6.4-134.317-4.265-141.8c2.4-8.538,6.5-11.625,8.143-12.513-.327-5.122-.033-9.424,1.019-12.675,10.375-32.279,82.62-66.759,82.62-66.759A2.061,2.061,0,0,1,325.979,273.031Z" transform="translate(-180.608 -129.005)" fill="#3d3d7a"/>
            <path id="Path_24" data-name="Path 24" d="M369.059,218.661l-8.112,1.116a396.445,396.445,0,0,1-6.8,43.741L253.106,301.873l-1.379,7.323c-.425-.033-.853-.066-1.248-.1.033,1.511.033,2.988.1,4.368.23,8.439.789,14.515,1.675,16.944a2.077,2.077,0,0,0,.592,1.019c2.744,2.238,38.482-2.1,77.116,12.085,33.508,12.3,52.287,25.743,53.157,23.938C393.646,345.559,374.476,259.644,369.059,218.661Z" transform="translate(-106.871 -186.382)" fill="#ff8578"/>
            <path id="Path_25" data-name="Path 25" d="M358.517,268.2c-2.692,12.938-9.654,38.683-23.315,42.132-17.83,4.532-52.31,4.3-84.624,2.561-.066-1.379-.066-2.857-.1-4.368.395.033.822.066,1.248.1l1.379-7.323,101.044-38.354a396.446,396.446,0,0,0,6.8-43.741,2.847,2.847,0,0,0,.033.362C361.176,222.949,362.556,249.088,358.517,268.2Z" transform="translate(-106.871 -185.809)" fill="#f4675d"/>
            <path id="Path_26" data-name="Path 26" d="M267.354,202.956c-1.807,3.282-4.4,38.42-5.812,73.295l-20.654-19.277C249.654,240,267.354,202.956,267.354,202.956Z" transform="translate(-116.993 -202.956)" fill="#f4675d"/>
            <path id="Path_27" data-name="Path 27" d="M290.063,285.076c-17.437,3.021-33.463,5.615-33.463,5.615l-.033.853c-19.408-15.5-48.929-59.4-48.929-59.4s8.834-10.607,11.033-13.4c.329-.428,48.471,32.706,50.933,32.41.625-.064,3.087-4.4,6.372-10.836l20.654,19.277c-.329,8.308-.59,16.582-.754,24.432C293.938,284.386,292,284.715,290.063,285.076Z" transform="translate(-152.081 -186.3)" fill="#f7b094"/>
            <path id="Path_28" data-name="Path 28" d="M258.658,256.9l-.427,14.383H205.69s5.221-20.524,19.439-20.524,19.7,7.52,19.7,7.52Z" transform="translate(-154.138 -152.509)" fill="url(#radial-gradient-5)"/>
            <path id="Path_29" data-name="Path 29" d="M235.436,226.175l.393.329c-2.2,2.791-11.033,13.4-11.033,13.4l-5.484-3.876a13.632,13.632,0,0,1-13.07-.164c-7.323-3.973-2.791-13.46-2.415-14.585-1.42.4-10.194,7.492-11.573,6.737s-2.4-3.252,7.42-12.938c9.787-9.687,23.118,2.758,23.513,2.758Z" transform="translate(-169.237 -194.06)" fill="#f7b094"/>
            <path id="Path_30" data-name="Path 30" d="M199.473,225.21s-2.117,3.965,1.646,5.687,11.086,2.966,14.231,2.664,5.646-4.7,5.646-4.7l-9.526-8.939h-7.617Z" transform="translate(-161.325 -185.056)" fill="#f7b094"/>
            <path id="Path_31" data-name="Path 31" d="M199.964,227.248c.565-1.946,5.975-.908,9.327-.83,2.47.06,3.823-.588,4.587-2.468s-2.824-4.881-3.529-3.94,1.293,2.265,1.352,3.513-3.529,1.663-6.291,1.663a67.287,67.287,0,0,0-7.533.719Z" transform="translate(-162.382 -185.147)" fill="#e8987c"/>
          </g>
        </g>
        <path id="Path_32" data-name="Path 32" d="M369.3,258.918l-51.457-18.224c-3.743,6.994-7.751,12.248-11.724,13.3-6.01,1.576-20.522,4.3-35.169,6.865-1.938.36-3.876.689-5.812,1.05-17.437,3.021-33.463,5.615-33.463,5.615l-.033.853v.559l-.395,12.971V285.2a363.649,363.649,0,0,1,39.505.649c30.834,2.2,70.6,3.515,83.771-2.693,6.172-2.923,11.1-12.511,14.973-24.333Z" transform="translate(60.436 -34.246)" fill="url(#radial-gradient-6)"/>
        <path id="Path_33" data-name="Path 33" d="M274.31,240.694l51.457,18.225-2.33,6.876-50.929-21.847Z" transform="translate(103.973 -34.247)" fill="#f7b094"/>
        <path id="Path_34" data-name="Path 34" d="M297.462,291.109c-3.743,6.994-7.751,12.248-11.724,13.3-6.01,1.576-20.522,4.3-35.169,6.865.164-7.849.425-16.124.754-24.432,1.412-34.875,4.006-70.012,5.812-73.295,2.956-5.486,11.033-17.4,23.776-20.13l.033.162s-4.4,26.008,21.869,26.008c25.023,0,28.209-24.333,28.439-26.664,12.872,1.445,32.608,7.88,35.333,33.757.559,5.124,1.346,11.691,2.364,19.145l-8.11,1.116s-3.284,36.451-11.724,62.295l-.2.1Z" transform="translate(80.821 -84.661)" fill="#ff8578"/>
        <path id="Path_35" data-name="Path 35" d="M273.126,263.926l20.547-49.74-15.137,51.749Z" transform="translate(104.625 -62.221)" fill="#6d4b35" style="mix-blend-mode: screen;isolation: isolate"/>
        <path id="Path_36" data-name="Path 36" d="M328.685,192.922h-11.2s-15.935,17.5-26.179,17.5-4.721-17.4-4.721-17.4h-5a28.249,28.249,0,0,0-28.063,25.044c-.185,1.634-.356,3.184-.5,4.585-1.1,10.585,41.785,18.288,41.785,18.288l22.078-1.235,13.407-26.158,2.672-10.712Z" transform="translate(83.39 -84.661)" fill="#ff8578"/>
        <g id="Group_61" data-name="Group 61" transform="translate(276.915 510.584)">
          <g id="Group_60" data-name="Group 60">
            <g id="Group_59" data-name="Group 59">
              <g id="Group_58" data-name="Group 58">
                <path id="Path_37" data-name="Path 37" d="M224.1,414.145c1,5.352,4.707,9.154,10.057,8.156l71.32-13.3a3.323,3.323,0,0,0,2.658-3.876l-1.18-6.328s-75.009,13.127-82.891,15.312Z" transform="translate(-224.065 -377.984)" fill="#f1f2f2"/>
                <path id="Path_38" data-name="Path 38" d="M245.321,406.873c.744-.645,1.459-1.285,2.2-1.93,1.43-1.281,2.838-2.528,4.193-3.735.715-.639,1.431-1.28,2.094-1.881,1.3-1.167,2.53-2.261,3.63-3.241.791-.715,1.529-1.389,2.193-1.99,1.219-1.093,2.214-1.985,2.912-2.61a1.614,1.614,0,0,1,2.123-.043c2.931,2.464,12.408,8.1,29.572-2.52a1.647,1.647,0,0,1,2.335.608l10.379,19.947s-75.009,13.127-82.891,15.312C226.657,423.176,236.233,414.889,245.321,406.873Z" transform="translate(-224.065 -388.669)" fill="#3d3d7a"/>
              </g>
            </g>
          </g>
        </g>
        <g id="Group_65" data-name="Group 65" transform="translate(164.598 518.99)">
          <g id="Group_64" data-name="Group 64">
            <g id="Group_63" data-name="Group 63">
              <g id="Group_62" data-name="Group 62">
                <path id="Path_39" data-name="Path 39" d="M169.447,406.927c.134,5.44,3.188,9.785,8.628,9.654l72.53-1.772a3.326,3.326,0,0,0,3.241-3.4l-.158-6.433s-76.143,1.007-84.27,1.909Z" transform="translate(-169.418 -379.871)" fill="#f1f2f2"/>
                <path id="Path_40" data-name="Path 40" d="M193.256,405.467c.837-.518,1.646-1.036,2.483-1.556,1.618-1.036,3.2-2.041,4.735-3.017.808-.518,1.615-1.036,2.366-1.523,1.472-.945,2.859-1.829,4.1-2.623.894-.58,1.731-1.126,2.481-1.613,1.377-.886,2.5-1.607,3.293-2.113a1.609,1.609,0,0,1,2.1.294c2.5,2.9,10.961,9.974,29.6,2.224a1.648,1.648,0,0,1,2.209.972l7.068,21.349s-76.143,1.007-84.27,1.909C172.232,418.588,183.006,411.933,193.256,405.467Z" transform="translate(-169.418 -392.759)" fill="#3d3d7a"/>
              </g>
            </g>
          </g>
        </g>
        <g id="Group_67" data-name="Group 67" transform="translate(74.297 147.642)">
          <path id="Path_41" data-name="Path 41" d="M164.218,315.391,125.483,212.083H235.758l38.735,103.308Z" transform="translate(-125.483 -212.083)" fill="#abb5ba"/>
          <path id="Path_42" data-name="Path 42" d="M224.689,315.391h-6.817L179.136,212.083l6.191.276,35.828,93.509Z" transform="translate(-68.861 -212.083)" fill="#8495a0"/>
          <path id="Path_43" data-name="Path 43" d="M128.369,256.914h138.84" transform="translate(-122.437 -164.771)" fill="none"/>
          <g id="Group_66" data-name="Group 66" transform="translate(152.199 96.794)">
            <path id="Path_44" data-name="Path 44" d="M201.024,265.69h72.867l-.2-6.513h-74.16" transform="translate(-199.534 -259.177)" fill="#8495a0"/>
          </g>
        </g>
        <g id="Group_72" data-name="Group 72" transform="translate(0 250.95)">
          <g id="Group_68" data-name="Group 68" transform="translate(520.883 19.702)">
            <rect id="Rectangle_38" data-name="Rectangle 38" width="17.544" height="288.226" fill="#8495a0"/>
          </g>
          <g id="Group_69" data-name="Group 69" transform="translate(425.652 19.702)">
            <rect id="Rectangle_39" data-name="Rectangle 39" width="17.544" height="288.226" fill="#abb5ba"/>
          </g>
          <g id="Group_70" data-name="Group 70" transform="translate(120.563 19.702)">
            <rect id="Rectangle_40" data-name="Rectangle 40" width="17.544" height="288.226" fill="#8495a0"/>
          </g>
          <g id="Group_71" data-name="Group 71" transform="translate(25.333 19.702)">
            <rect id="Rectangle_41" data-name="Rectangle 41" width="17.544" height="288.226" fill="#abb5ba"/>
          </g>
          <rect id="Rectangle_42" data-name="Rectangle 42" width="564.511" height="20.798" rx="4.149" fill="#141b56"/>
        </g>
        <path id="Path_45" data-name="Path 45" d="M134.441,217.366l1.886,5.03H158.3l-1.886-5.03Z" transform="translate(-41.732 -58.865)" fill="#8495a0"/>
        <path id="Path_46" data-name="Path 46" d="M241.7,229.238l-1.576,3.047,22.232,22.975v-6.746Z" transform="translate(69.794 -46.336)" fill="#e8987c"/>
      </g>
      <g id="Group_85" data-name="Group 85" transform="translate(10.697 179.505)">
        <g id="Group_46-2" data-name="Group 46">
          <path id="Path_58" data-name="Path 58" d="M0,0H105.5V70.563H0Z" fill="#0a97b0"/>
        </g>
      </g>
    </g>
    <g id="Group_79" data-name="Group 79" transform="translate(668.557 497.56)">
      <g id="Group_78" data-name="Group 78" transform="translate(0)">
        <g id="Group_75" data-name="Group 75" transform="translate(76.755 32.326)">
          <path id="Path_47" data-name="Path 47" d="M416.955,377.784c-3.527,17.111-2.464,46.257-25.1,50.873-6.094,1.243-11.982-2.982-15.526-7.825-4.637-6.337-5.747-19.75-5.666-27.42.066-6.08,2.138-12.86,2.805-18.993.721-6.624,1.307-13.263,2.08-19.883,2.785-23.858,15.248-43.854,36.33-55.763,1.632,7.831,5.352,14.459,8.63,21.98a77.834,77.834,0,0,1,3.817,10.636c1.724,6.361-.362,12.79-1.907,18.884C420.128,359.282,418.834,368.67,416.955,377.784Z" transform="translate(-370.657 -298.773)" fill="url(#linear-gradient)"/>
          <path id="Path_48" data-name="Path 48" d="M385.923,424.851c.16-1.435.339-2.869.528-4.3,2.7-.006,5.521-1.544,7.792-2.721a41.383,41.383,0,0,0,10.223-8.1c.167-.167-.113-.438-.29-.29a46.06,46.06,0,0,1-9.956,6.813c-2.047.956-5.04,2.514-7.564,2.816q.358-2.568.785-5.128c2.816-.345,5.4-2.2,7.781-3.609,4.053-2.4,7.539-5.517,11.152-8.515a.041.041,0,0,0-.051-.064c-5.527,4.014-11.685,9.728-18.677,10.98.37-2.138.763-4.271,1.211-6.388.023-.111.047-.22.072-.331,8.092-2.047,13.565-8.394,19.762-13.524.1-.084-.008-.255-.113-.173-6.1,4.737-11.835,10.147-19.378,12.445.654-3.03,1.334-6.049,2.018-9.068a43.192,43.192,0,0,0,18.286-12.965c.086-.1-.055-.24-.148-.144-5.3,5.512-11.13,8.678-17.846,11.816.678-2.988,1.348-5.975,1.985-8.969,3.167-1.56,6.5-2.507,9.424-4.555a25.791,25.791,0,0,0,7.333-7.436.144.144,0,0,0-.243-.154c-4.1,5.888-10.275,7.722-16.243,10.819.582-2.791,1.124-5.593,1.609-8.408,6.653-3.663,13.88-7.058,17.649-14.077.037-.068-.06-.138-.1-.068-3.994,6.448-10.973,9.226-17.308,12.737.082-.5.173-1,.251-1.5.409-2.61.789-5.227,1.163-7.841a63.841,63.841,0,0,0,10.906-5.932c2.442-1.589,5.05-3.165,6.647-5.66a.145.145,0,0,0-.236-.167c-3.568,5.112-11.38,8.067-17.152,10.624q.561-3.962,1.122-7.925c6.4-3.874,13.937-6.018,17.877-13a.187.187,0,0,0-.317-.2c-4.08,6.378-11.265,8.345-17.386,11.964q.354-2.454.721-4.906c6.914-2.542,14.955-8.332,18.6-14.583a.31.31,0,0,0-.522-.333c-3.72,5.484-11.191,11.444-17.877,13.616.409-2.649.837-5.294,1.307-7.936a.693.693,0,0,0,.1-.232c3.106-.915,6.174-3.1,8.854-4.758,3.231-1.992,6.316-4.31,8.326-7.586.222-.362-.368-.7-.576-.325-3.073,5.481-10.361,9.154-16.4,11.249.177-.962.352-1.926.543-2.888.284-1.439.578-2.875.872-4.312,2.471-1.706,5.607-2.522,8.088-4.324a45.758,45.758,0,0,0,5.886-5.364c.185-.191-.088-.483-.282-.3a38.946,38.946,0,0,1-8.127,6.242c-1.7.91-3.646,1.431-5.3,2.431.483-2.349.964-4.7,1.424-7.052.029,0,.057-.012.086-.018l.088.018a.441.441,0,0,0,.407-.125c3.358-.847,5.93-3.741,8.186-6.205a.062.062,0,0,0-.086-.088c-2.37,2.191-5.06,4.614-8.234,5.555a.225.225,0,0,0-.033-.014l-.243-.037q.555-2.873,1.038-5.755a.439.439,0,0,0,.4-.493,35.374,35.374,0,0,0,4.918-4.211.124.124,0,0,0-.169-.181,28.7,28.7,0,0,1-4.912,3.467,118.719,118.719,0,0,0,1.336-11.995c.021-.374-.545-.378-.578-.01-.351,3.88-.917,7.724-1.583,11.549-1.854-2.432-3.917-4.935-5.048-7.718-.06-.144-.288-.086-.238.07a22.02,22.02,0,0,0,2.456,4.777,29.049,29.049,0,0,0,2.6,4.2q-.561,3.08-1.2,6.147c-2.253-.364-4.318-.789-6.178-2.421a11.218,11.218,0,0,1-3.8-7.722c-.027-.37-.61-.368-.578,0a12.775,12.775,0,0,0,3.286,7.52c2.016,2.2,4.38,2.9,7.093,3.459q-.74,3.542-1.523,7.079a55.11,55.11,0,0,1-5.792-4.3c-2.976-2.372-4.733-5.227-7.317-7.9-.259-.267-.682.119-.425.39,2.421,2.573,4.057,5.36,6.813,7.675a39.253,39.253,0,0,0,6.536,4.982l-.082.374c-.027.023-.053.041-.078.066a.379.379,0,0,0-.053.528c-.5,2.257-.993,4.516-1.47,6.778-.031.142-.055.286-.084.428-5.266-2.411-13.134-6.6-13.83-12.708a.412.412,0,1,0-.8.177c1.558,6.912,9.156,9.975,14.389,13.744q-.774,3.838-1.422,7.7a31.161,31.161,0,0,1-9.489-4.887c-2.6-2.066-6.271-4.557-7.44-7.757-.037-.1-.185-.035-.152.066,1.083,3.18,4.38,5.364,6.776,7.535,3.044,2.754,6.158,5.091,10.071,6.193a.694.694,0,0,0-.01.343q-.4,2.448-.777,4.9c-6.394-.491-15.341-5.348-18.609-10.184-.016-.023-.047,0-.033.025,2.228,3.689,5.6,5.847,9.4,7.72,2.836,1.4,5.9,3.052,9.113,3.291-.458,3.025-.9,6.055-1.354,9.08-2.775-1.034-5.714-1.529-8.458-2.629a20.942,20.942,0,0,1-9.6-8.174c-.144-.218-.508-.035-.364.193,4.427,7.037,10.794,9.1,18.255,11.738q-.561,3.724-1.172,7.442c-6.1-1.172-14-4.9-17.09-10.2-.228-.388-.847-.066-.621.327,1.953,3.4,5.313,5.547,8.743,7.28,2.471,1.248,5.872,3.315,8.815,3.537-.014.08-.027.162-.041.242-.6,3.568-1.307,7.116-2.07,10.651-6.82-1.714-11.228-6.768-16.186-11.5-.345-.329-.884.175-.541.51,5.05,4.972,9.485,10.186,16.5,12.024q-.943,4.316-1.994,8.61a31.51,31.51,0,0,1-15.316-10.482c-.267-.335-.734.119-.481.454a33.919,33.919,0,0,0,15.53,11.14q-1.131,4.606-2.323,9.2c-5.969-.908-10.566-4.645-14.241-9.366-.086-.111-.277.033-.2.148,3.264,4.542,8.2,9.789,14.147,10.338q-.379,1.468-.756,2.933c-.152.59-.312,1.188-.475,1.79-4.5-1.324-8.678-2.939-12.39-5.973-.1-.084-.224.076-.125.164a32.3,32.3,0,0,0,12.27,6.709c-.5,1.84-1.03,3.73-1.552,5.658a25.191,25.191,0,0,0-3.418-1.455c-2.238-.672-3.687-2.09-5.636-3.262-.179-.107-.38.146-.2.263,1.71,1.116,2.912,2.553,4.865,3.289,1.445.545,2.808,1.237,4.2,1.858-2.051,7.646-3.864,15.77-2.879,23.11.218,1.628,2.947,2.059,3.369.327C385.385,435.972,385.317,430.289,385.923,424.851Z" transform="translate(-368.558 -294.391)" fill="#747ded"/>
        </g>
        <g id="Group_76" data-name="Group 76" transform="translate(0 36.953)">
          <path id="Path_49" data-name="Path 49" d="M384.728,370.508c4.026,17,17.289,42.977-1.282,56.714-5,3.7-12.122,2.355-17.38-.539-6.877-3.788-13.545-15.479-16.708-22.467-2.51-5.539-3.49-12.562-5.473-18.4-2.144-6.31-4.413-12.577-6.507-18.9-7.545-22.806-4.684-46.193,9.4-65.887,4.785,6.411,10.955,10.85,17.1,16.284a77.765,77.765,0,0,1,7.95,8.03c4.248,5.042,5.07,11.75,6.24,17.926C379.8,352.4,382.586,361.457,384.728,370.508Z" transform="translate(-333.312 -301.024)" fill="url(#linear-gradient-2)"/>
          <path id="Path_50" data-name="Path 50" d="M378.291,424.73q-.691-2.056-1.338-4.127c2.45-1.147,4.353-3.728,5.915-5.755a41.434,41.434,0,0,0,5.852-11.656c.078-.22-.288-.347-.384-.138a46.118,46.118,0,0,1-6.152,10.379c-1.451,1.729-3.506,4.4-5.666,5.743q-.761-2.479-1.455-4.98c2.409-1.5,3.967-4.267,5.531-6.554,2.659-3.893,4.507-8.184,6.517-12.427a.042.042,0,0,0-.074-.039c-3.317,5.973-6.489,13.752-12.3,17.838-.567-2.094-1.112-4.193-1.6-6.3-.027-.111-.049-.22-.074-.331,6.47-5.272,8.756-13.335,12.207-20.6.055-.119-.113-.228-.175-.109-3.533,6.871-6.448,14.194-12.315,19.462-.684-3.023-1.344-6.049-2-9.074a43.15,43.15,0,0,0,11.107-19.472.1.1,0,0,0-.2-.068c-2.475,7.233-6.427,12.564-11.191,18.243-.647-2.992-1.3-5.985-1.987-8.969,2.216-2.748,4.834-5.013,6.622-8.1a25.757,25.757,0,0,0,3.51-9.837.144.144,0,0,0-.286-.037c-1.229,7.066-6.055,11.335-10.159,16.662q-.974-4.165-2.088-8.3c4.485-6.129,9.6-12.256,10.059-20.21,0-.078-.113-.1-.123-.018-.9,7.531-6.053,12.994-10.316,18.851-.136-.489-.265-.98-.4-1.47q-1.1-3.811-2.257-7.6a63.86,63.86,0,0,0,7.385-9.981c1.542-2.47,3.241-5,3.636-7.938a.144.144,0,0,0-.284-.051c-1.079,6.141-6.914,12.116-11.066,16.872q-1.162-3.832-2.329-7.658c4.17-6.217,10.1-11.339,10.72-19.332a.186.186,0,0,0-.37-.045c-1.007,7.5-6.69,12.32-10.71,18.185q-.718-2.377-1.418-4.754c5.2-5.223,10.042-13.865,10.71-21.071a.31.31,0,0,0-.615-.082c-1.056,6.542-5.315,15.1-10.46,19.889-.746-2.573-1.476-5.153-2.162-7.744a.759.759,0,0,0-.006-.255c2.429-2.14,4.287-5.42,6.018-8.049,2.088-3.171,3.907-6.573,4.347-10.392a.331.331,0,0,0-.66-.053c-.471,6.267-5.529,12.673-10.116,17.119-.245-.948-.493-1.9-.728-2.847q-.521-2.137-1.028-4.277c1.519-2.59,4.018-4.653,5.506-7.333a45.584,45.584,0,0,0,3.073-7.35.206.206,0,0,0-.382-.152,38.8,38.8,0,0,1-4.733,9.087c-1.159,1.548-2.7,2.838-3.774,4.441-.555-2.333-1.11-4.665-1.685-6.992.025-.017.045-.037.07-.056l.088-.021a.436.436,0,0,0,.314-.286c2.688-2.185,3.8-5.893,4.8-9.08a.062.062,0,0,0-.115-.043c-1.225,2.986-2.641,6.32-5.12,8.511a.21.21,0,0,1-.037,0l-.234.068q-.712-2.836-1.488-5.654a.44.44,0,0,0,.152-.615,35.125,35.125,0,0,0,2.68-5.893.124.124,0,0,0-.228-.095,28.685,28.685,0,0,1-2.99,5.216,118.854,118.854,0,0,0-3.852-11.438c-.138-.347-.651-.113-.528.234,1.32,3.667,2.431,7.389,3.441,11.138-2.707-1.42-5.634-2.82-7.835-4.865-.113-.107-.3.043-.185.162a22.1,22.1,0,0,0,4.242,3.295,29.31,29.31,0,0,0,4.129,2.707c.53,2.018,1.028,4.045,1.509,6.078-2.2.623-4.248,1.108-6.624.415a11.214,11.214,0,0,1-6.7-5.4c-.181-.323-.709-.074-.522.247a12.792,12.792,0,0,0,6.154,5.432c2.754,1.141,5.192.777,7.89.142q.823,3.524,1.607,7.058a55.224,55.224,0,0,1-7.066-1.453c-3.7-.9-6.5-2.742-9.968-4.072a.289.289,0,0,0-.222.532c3.282,1.313,5.942,3.149,9.417,4.082a39.113,39.113,0,0,0,8.028,1.759l.082.372c-.012.033-.031.062-.043.095a.379.379,0,0,0,.177.5c.5,2.259,1.005,4.516,1.529,6.768.031.14.07.28.1.421-5.79.037-14.691-.438-17.9-5.681-.306-.5-1.023.012-.651.5,4.328,5.609,12.511,5.179,18.845,6.388q.922,3.807,1.959,7.58a31.174,31.174,0,0,1-10.665-.425c-3.227-.777-7.607-1.486-10.018-3.893-.076-.074-.183.047-.111.123,2.325,2.427,6.236,3.017,9.325,3.971,3.922,1.213,7.73,2.018,11.742,1.365a.714.714,0,0,0,.136.317q.669,2.386,1.363,4.768c-6,2.255-16.163,1.628-21.168-1.377-.023-.014-.041.021-.018.035,3.576,2.4,7.543,2.939,11.775,3.034,3.163.07,6.641.273,9.652-.863.861,2.935,1.737,5.868,2.606,8.8-2.951.234-5.825,1.026-8.778,1.188a20.951,20.951,0,0,1-12.155-3.36c-.222-.136-.475.183-.249.329,6.984,4.511,13.629,3.7,21.5,2.937q1.064,3.613,2.08,7.241c-6.03,1.517-14.761,1.472-19.8-2.033-.37-.257-.8.3-.423.559,3.2,2.257,7.159,2.785,11,2.908,2.767.088,6.723.528,9.485-.514.021.078.045.158.066.238.958,3.488,1.817,7,2.619,10.527-6.906,1.326-13.037-1.4-19.526-3.591-.452-.152-.728.53-.275.691,6.676,2.374,12.9,5.231,20.035,3.934q.965,4.313,1.827,8.647a31.527,31.527,0,0,1-18.311-3.038c-.382-.193-.615.417-.245.612A33.882,33.882,0,0,0,369.1,396.7c.614,3.1,1.2,6.213,1.778,9.321-5.794,1.7-11.539.249-16.864-2.481-.123-.064-.236.148-.115.218,4.877,2.74,11.571,5.412,17.191,3.4q.277,1.489.551,2.978c.111.6.22,1.209.327,1.823-4.639.7-9.107,1-13.754-.185-.13-.033-.169.162-.043.2a32.284,32.284,0,0,0,13.956.9c.321,1.881.639,3.817.98,5.786a24.755,24.755,0,0,0-3.712.123c-2.312.335-4.226-.339-6.487-.578-.208-.023-.284.292-.07.323,2.02.29,3.716,1.085,5.8.927,1.539-.117,3.069-.062,4.6-.09,1.367,7.8,3.151,15.931,7.142,22.169.884,1.383,3.541.621,3.194-1.126C382.5,435.039,380.036,429.913,378.291,424.73Z" transform="translate(-331.389 -296.389)" fill="#747ded"/>
        </g>
        <g id="Group_77" data-name="Group 77" transform="translate(33.028)">
          <path id="Path_51" data-name="Path 51" d="M407,376.305c.956,21.6,11.068,56.248-14.693,68.65-6.937,3.34-15.281.055-21-4.68-7.486-6.2-12.883-21.953-15.111-31.181-1.768-7.315-1.336-16.079-2.394-23.638-1.143-8.168-2.452-16.311-3.533-24.489-3.891-29.469,5-57.241,26.684-77.921,4.333,8.9,10.8,15.727,17.018,23.755a96.332,96.332,0,0,1,7.806,11.6c4,7.111,3.445,15.458,3.434,23.237C405.2,353.146,406.493,364.8,407,376.305Z" transform="translate(-349.382 -283.045)" fill="url(#linear-gradient-3)"/>
          <path id="Path_52" data-name="Path 52" d="M385.323,441.071q-.364-2.654-.672-5.325c3.243-.828,6.156-3.527,8.521-5.625,4.107-3.644,7.05-8.123,9.814-12.815.148-.251-.269-.489-.436-.259a57.047,57.047,0,0,1-9.88,11.193c-2.166,1.765-5.284,4.544-8.221,5.673q-.351-3.194-.612-6.392c3.274-1.268,5.808-4.269,8.24-6.69,4.133-4.115,7.374-8.906,10.8-13.6a.051.051,0,0,0-.08-.064c-5.416,6.493-11.072,15.215-19.082,18.837-.206-2.676-.38-5.354-.485-8.032,0-.14-.008-.277-.014-.417,9.089-4.91,13.734-14.186,19.612-22.22.094-.129-.086-.3-.189-.173-5.884,7.537-11.123,15.764-19.476,20.808-.134-3.833-.234-7.664-.327-11.491a53.432,53.432,0,0,0,18.009-21.1.127.127,0,0,0-.22-.127c-4.684,8.221-10.723,13.787-17.83,19.587-.092-3.788-.193-7.576-.339-11.364,3.33-2.828,7.04-4.976,9.927-8.32a31.91,31.91,0,0,0,6.544-11.146.179.179,0,0,0-.339-.113c-3.128,8.31-9.985,12.381-16.206,17.908-.15-3.527-.347-7.052-.619-10.577,6.871-6.413,14.515-12.675,16.907-22.241.025-.094-.113-.148-.144-.051-2.836,8.947-10.369,14.4-16.907,20.531-.051-.627-.093-1.254-.152-1.883-.3-3.256-.637-6.509-.982-9.761A78.8,78.8,0,0,0,391.772,355.4c2.446-2.647,5.1-5.329,6.258-8.807a.179.179,0,0,0-.335-.127c-2.731,7.214-11.21,13.129-17.357,17.947q-.527-4.923-1.056-9.849c6.507-6.589,14.9-11.444,17.507-21.02a.23.23,0,0,0-.438-.138c-2.964,8.887-10.988,13.427-17.234,19.624q-.321-3.052-.621-6.106c7.525-5.144,15.417-14.529,17.9-23.135a.384.384,0,0,0-.728-.243c-2.8,7.707-9.958,17.125-17.32,21.758-.312-3.3-.6-6.606-.839-9.915a.908.908,0,0,0,.053-.312c3.449-2.039,6.466-5.6,9.181-8.392,3.272-3.371,6.271-7.087,7.689-11.627a.409.409,0,0,0-.789-.216c-2.022,7.508-9.656,14.126-16.262,18.467-.078-1.209-.162-2.417-.224-3.628q-.142-2.719-.261-5.438c2.448-2.8,5.962-4.727,8.392-7.642a56.643,56.643,0,0,0,5.438-8.221.256.256,0,0,0-.432-.273,48.126,48.126,0,0,1-7.855,9.952c-1.768,1.609-3.942,2.824-5.619,4.524-.132-2.966-.267-5.93-.43-8.891.035-.016.066-.035.1-.049l.113-.006a.537.537,0,0,0,.448-.273c3.774-2.035,5.981-6.285,7.942-9.927a.076.076,0,0,0-.129-.08c-2.181,3.348-4.674,7.072-8.195,9.163-.016,0-.029-.006-.045-.006l-.3.029q-.207-3.616-.5-7.22a.543.543,0,0,0,.329-.711,43.8,43.8,0,0,0,4.622-6.544.153.153,0,0,0-.257-.167,35.625,35.625,0,0,1-4.842,5.65,147.2,147.2,0,0,0-2.035-14.8c-.088-.454-.767-.288-.7.164.756,4.762,1.246,9.545,1.6,14.336-2.962-2.355-6.195-4.733-8.4-7.73-.115-.154-.372-.014-.265.156a27.32,27.32,0,0,0,4.394,4.986,36.343,36.343,0,0,0,4.394,4.248c.177,2.575.312,5.157.425,7.738-2.812.249-5.422.362-8.147-1.03a13.875,13.875,0,0,1-6.9-8.116c-.146-.434-.847-.255-.693.179a15.813,15.813,0,0,0,6.224,8.028c3.083,2.025,6.133,2.148,9.559,2q.185,4.473.319,8.953a67.851,67.851,0,0,1-8.252-3.4c-4.291-1.944-7.266-4.836-11.175-7.257-.393-.242-.783.349-.395.6,3.687,2.353,6.495,5.2,10.5,7.142,2.884,1.4,6.141,3.237,9.352,4l.016.473c-.025.037-.051.068-.074.1a.471.471,0,0,0,.1.65c.088,2.859.177,5.72.292,8.579.008.179.021.358.029.536-7.048-1.295-17.76-3.934-20.448-11.051a.508.508,0,1,0-.906.452c3.965,7.823,14.009,9.194,21.433,12.131q.234,4.84.625,9.668a38.534,38.534,0,0,1-12.866-2.988c-3.743-1.689-8.906-3.566-11.278-7.05-.076-.109-.234.014-.162.123,2.263,3.488,6.879,5.112,10.414,6.988,4.487,2.38,8.93,4.242,13.96,4.378a.864.864,0,0,0,.092.415q.259,3.055.553,6.113c-7.823,1.348-20.029-1.763-25.416-6.577-.025-.023-.055.016-.033.039,3.794,3.753,8.493,5.319,13.616,6.413,3.829.818,8.008,1.872,11.933,1.186.366,3.769.752,7.539,1.128,11.306-3.642-.4-7.319-.1-10.947-.59a25.9,25.9,0,0,1-14-6.9c-.241-.216-.621.113-.38.343,7.446,7.1,15.713,7.648,25.463,8.548q.456,4.64.851,9.286c-7.681.446-18.286-1.63-23.6-7.058-.391-.4-1.036.179-.645.582,3.373,3.486,8.059,5.044,12.7,6.082,3.342.748,8.051,2.2,11.647,1.572.01.1.018.2.027.3.358,4.462.588,8.932.746,13.4-8.7.012-15.526-4.715-22.907-8.885-.514-.29-1.007.475-.5.775,7.568,4.433,14.472,9.346,23.447,9.424q.176,5.463.218,10.934a39.005,39.005,0,0,1-21.556-7.934c-.421-.323-.843.366-.438.689a41.956,41.956,0,0,0,22.01,8.659c.027,3.913.021,7.829,0,11.742-7.436.719-14.085-2.37-19.926-6.92-.136-.107-.325.125-.191.236,5.294,4.462,12.813,9.259,20.111,8.116q-.009,1.874-.021,3.749-.006,1.132-.025,2.292c-5.8-.226-11.3-.9-16.679-3.41-.15-.072-.242.158-.1.234a39.993,39.993,0,0,0,16.757,4.328c-.045,2.359-.107,4.789-.148,7.259a31.07,31.07,0,0,0-4.542-.709c-2.888-.127-5.058-1.389-7.751-2.2-.247-.076-.413.29-.16.376,2.388.818,4.267,2.179,6.832,2.468,1.9.216,3.745.635,5.607.956-.144,9.8.144,20.095,3.552,28.6.754,1.887,4.162,1.576,4.144-.629C388.046,454.578,386.244,447.777,385.323,441.071Z" transform="translate(-346.816 -277.307)" fill="#747ded"/>
        </g>
        <path id="Path_53" data-name="Path 53" d="M420.586,366.66l-.954,17.559-1.492,27.341L415.7,456.484h-60.82l-2.446-44.924-1.492-27.341-.954-17.559Z" transform="translate(-315.719 -194.805)" fill="#95a8b5"/>
        <path id="Path_54" data-name="Path 54" d="M419.143,375.2l-.2,3.522-.2,3.644-1.1,20.176H351.939l-1.1-20.176-.2-3.644-.2-3.522Z" transform="translate(-315.229 -185.789)" fill="#a5b7c6"/>
        <path id="Path_55" data-name="Path 55" d="M418.847,376.916l-.2,3.644H350.738l-.2-3.644Z" transform="translate(-315.129 -183.981)" fill="#95a8b5"/>
      </g>
    </g>
    <g id="question" transform="translate(114.793 273.36)">
      <ellipse id="Ellipse_1" data-name="Ellipse 1" cx="5.5" cy="5" rx="5.5" ry="5" transform="translate(108 33)" fill="#fff"/>
      <path id="Path_64" data-name="Path 64" d="M113.222,0A13.237,13.237,0,0,0,100,13.222v1.271h10.171V13.222a3.051,3.051,0,1,1,5.023,2.328l-7.057,6v9.132h10.171V26.252L121.78,23.3A13.221,13.221,0,0,0,113.222,0Z" fill="#fff"/>
    </g>
  </g>
</svg>
